<svg xmlns:dc="http://purl.org/dc/elements/1.1/" xmlns:cc="http://creativecommons.org/ns#" xmlns:rdf="http://www.w3.org/1999/02/22-rdf-syntax-ns#" xmlns:svg="http://www.w3.org/2000/svg" xmlns="http://www.w3.org/2000/svg" xmlns:sodipodi="http://sodipodi.sourceforge.net/DTD/sodipodi-0.dtd" xmlns:inkscape="http://www.inkscape.org/namespaces/inkscape" width="1000" height="491.81" viewBox="0 0 1000 491.81" id="svg2" version="1.1" inkscape:version="0.91 r13725" sodipodi:docname="Jeopardy! 1984 Alternate 2.svg">
  <defs id="defs4"/>
  <sodipodi:namedview id="base" pagecolor="#ffffff" bordercolor="#FFFF00" borderopacity="1.0" inkscape:pageopacity="0.0" inkscape:pageshadow="2" inkscape:zoom="0.49497475" inkscape:cx="560.78453" inkscape:cy="200.03642" inkscape:document-units="px" inkscape:current-layer="layer1" showgrid="false" units="px" inkscape:window-width="1366" inkscape:window-height="705" inkscape:window-x="-8" inkscape:window-y="-8" inkscape:window-maximized="1"/>
  <metadata id="metadata7">
    <rdf:RDF>
      <cc:Work rdf:about="">
        <dc:format>image/svg+xml</dc:format>
        <dc:type rdf:resource="http://purl.org/dc/dcmitype/StillImage"/>
        <dc:title/>
      </cc:Work>
    </rdf:RDF>
  </metadata>
  <g inkscape:label="Layer 1" inkscape:groupmode="layer" id="layer1" transform="translate(0,-560.55215)">
    <path d="m 59.624,621.74935 33.6608,0 0,401.57495 c 0,0 -2.6254,29.6047 -19.6282,28.9701 l -56.922,0 c 0,0 -16.7346,0 -16.7346,-29.9619 l 0,-129.13705 28.9464,0 0,122.80975 c 0,0 0.1227,10.4822 6.1264,10.4822 l 25.6605,0 c 0,0 6.2418,0.5666 6.2418,-11.6149 l 0,-393.12315" style="fill:#FFFF00;fill-opacity:1;fill-rule:nonzero;stroke:none" id="path6413" inkscape:connector-curvature="0" sodipodi:nodetypes="cccccscccscsc"/>
    <path d="m 212.4963,783.87195 0,-162.1226 -66.5476,0 c 0,0 -25.3796,-1.9262 -25.3796,36.9025 l 0,359.71495 c 0,0 0.4943,33.5024 25.0213,33.9276 l 66.9059,0 0,-26.0444 -51.68529,0 c 0,0 -8.8625,0 -8.8625,-13.2469 l 0,-87.41405 c 0,0 0,-12.2555 8.415,-12.2555 l 52.13279,0 0,-20.7579 -52.3805,0 c 0,0 -8.78685,1.4852 -8.7868,-11.6147 l 3e-4,-84.4825 c 0,0 0.3715,-12.6067 8.7865,-12.6067 l 52.3805,2e-4" style="fill:#FFFF00;fill-opacity:1;fill-rule:nonzero;stroke:none" id="path6415" inkscape:connector-curvature="0" sodipodi:nodetypes="cccscccccscscccscsc"/>
    <path d="m 964.2362,1027.276 35.7638,0 0,25.0184 -35.7638,0 z m 0,-466.72425 35.7638,0 0,439.56305 -35.7638,0 z" style="fill:#FFFF00;fill-opacity:1;fill-rule:evenodd;stroke:none" id="path6429" inkscape:connector-curvature="0" sodipodi:nodetypes="cccccccccc"/>
    <path d="m 276.3598,783.43225 c -5.5952,0 -10.1609,4.052 -10.1609,12.5512 l 0,213.03815 c 0,8.4992 4.5657,15.44 10.1609,15.44 l 12.2505,0 c 5.5952,0 10.1607,-6.9408 10.1607,-15.44 l 0,-213.03815 c 0,-8.4992 -1.9401,-12.5512 -7.5353,-12.5512 z m -21.3648,-161.6829 62.8441,0 c 11.1903,0 20.2767,13.8819 20.2767,30.8796 l 0,368.78575 c 0,17.066 -20.6381,30.9475 -31.8284,30.9475 l -51.2924,0 c -11.1903,0 -20.2765,-13.8815 -20.2765,-30.9475 l 0,-368.78575 c 0,-16.9977 9.0862,-30.8796 20.2765,-30.8796" style="fill:#FFFF00;fill-opacity:1;fill-rule:nonzero;stroke:none" id="path6417" inkscape:connector-curvature="0" sodipodi:nodetypes="ssssssssscsssssssc"/>
    <path d="m 391.3475,781.27275 0,109.9978 30.5673,0 c 0,0 7.0723,0 7.0723,-9.8415 l 0,-89.0398 c 0,0 0.037,-11.1165 -8.9074,-11.1165 z m 9.9773,271.02165 -39.4342,0 0,-430.54505 75.4219,0 c 31.1088,0 27.9573,40.7268 27.9573,40.7268 l 0,218.6736 c 0,28.4709 -24.2817,30.2593 -24.2817,30.2593 l -49.6406,0 0,140.88535" style="fill:#FFFF00;fill-opacity:1;fill-rule:evenodd;stroke:none" id="path6419" inkscape:connector-curvature="0" sodipodi:nodetypes="cccscsccccscsccc"/>
    <path d="m 508.9787,898.69625 30.7117,0 -3.998,-106.0312 c 0,0 0.2206,-9.4954 -10.6794,-9.4954 -11.0259,0 -10.9247,9.4954 -10.9247,9.4954 z m -1.7898,26.8899 -8.4597,126.70825 -33.2783,0 24.0813,-406.13505 c 0,0 0,-24.41 19.5155,-24.41 l 32.894,0 c 15.8459,0 16.3655,24.41 16.3655,24.41 l 20.4055,406.13505 -36.0715,0 -4.0042,-126.70825 -34.8611,0" style="fill:#FFFF00;fill-opacity:1;fill-rule:evenodd;stroke:none" id="path6421" inkscape:connector-curvature="0" sodipodi:nodetypes="cccsccccccssccccc"/>
    <path d="m 627.2366,784.74585 0,114.6946 28.9458,0 c 0,0 7.1161,-2.2285 7.1161,-12.0701 l 6e-4,-91.509 c 0,0 0.044,-11.1155 -8.9072,-11.1155 z m 0,140.8403 0,126.70825 -31.0338,0 0,-430.54505 75.4219,0 c 31.0641,0 28.0933,40.7268 28.0933,40.7268 l 0,214.5233 c 0,28.4719 -23.1766,35.4691 -23.1766,35.4691 0,0 13.784,5.9173 18.8914,18.4133 3.3772,8.2629 4.2852,18.0767 4.2852,18.0767 l 0,79.29265 c 0,0 -0.5632,16.4208 12.6392,24.0432 l -41.6894,0 c -5.0431,-2.9115 -7.3693,-24.0432 -7.3693,-24.0432 l 0,-74.82795 c 0,0 0.4029,-27.8371 -11.0999,-27.8371 l -24.962,0" style="fill:#FFFF00;fill-opacity:1;fill-rule:evenodd;stroke:none" id="path6423" inkscape:connector-curvature="0" sodipodi:nodetypes="cccscscccccscscsccccccsc"/>
    <path d="m 755.0414,783.87175 0,240.89305 26.0058,0 c 0,0 7.0724,0 7.0724,-9.8472 l 0,-222.52835 c 0,0 0.037,-8.5175 -8.9073,-8.5175 z m -33.9734,268.42265 0,-430.54505 70.1401,0 c 31.109,0 31.109,26.5497 31.109,26.5497 l 0,354.55975 c 0,49.4356 -26.9909,49.4356 -26.9909,49.4356 l -74.2582,0" style="fill:#FFFF00;fill-opacity:1;fill-rule:evenodd;stroke:none" id="path6425" inkscape:connector-curvature="0" sodipodi:nodetypes="cccscscccscscc"/>
    <path d="m 913.0744,913.50925 -36.0324,0 c 0,0 -32.8992,3.9592 -32.8992,-43.1531 l 2e-4,-248.6068 35.8085,0 0.1788,254.4236 c 0,0 -0.6695,14.3551 11.3694,14.3551 l 21.5745,0 0,-268.7787 36.2117,0 0,408.96845 c 0,0 0.8522,21.5766 -27.4833,21.5766 l -77.66,0 0,-25.0184 59.4872,0 c 0,0 9.4444,0.087 9.4444,-14.9268 l 0,-98.83995" style="fill:#FFFF00;fill-opacity:1;fill-rule:nonzero;stroke:none" id="path6427" inkscape:connector-curvature="0" sodipodi:nodetypes="ccscccsccccscccsc"/>
  </g>
</svg>
